# xmcd
#
# Track frame offsets:
#	182
#	22245
#	40495
#	61102
#	80740
#	96010
#	119605
#	135042
#	152202
#	164385
#	180510
#
# Disc length: 2648 seconds
#
# Revision: 0
# Processed by: cddbd v1.5.2PL0 Copyright (c) Steve Scherf et al.
# Submitted via: dBpowerAMP V4.0
#
DISCID=8c0a560b
DTITLE=Indigo - Carnets De Vol
DYEAR=1900
DGENRE=Acapella
TTITLE0=Le Monde Saigne
TTITLE1=Belle Île En Mer
TTITLE2=Monsieur Lumba
TTITLE3=Hemingway
TTITLE4=Roxanne
TTITLE5=Place Wenceslas
TTITLE6=Orient Express
TTITLE7=Stop Model
TTITLE8=La Madrague
TTITLE9=Soledad
TTITLE10=Les Marquises
EXTD=
EXTT0=
EXTT1=
EXTT2=
EXTT3=
EXTT4=
EXTT5=
EXTT6=
EXTT7=
EXTT8=
EXTT9=
EXTT10=
PLAYORDER=
